<svg width="605" height="605" viewBox="0 0 605 605" fill="none" xmlns="http://www.w3.org/2000/svg">
<path d="M484.276 146.074C517.395 184.44 537.518 232.305 541.762 282.81C546.005 333.315 534.151 383.867 507.898 427.221L302.605 302.904L484.276 146.074Z" fill="#FF6633" stroke="#CDA452" stroke-width="2"/>
<path d="M484.277 146.074C451.157 107.708 406.743 80.8129 357.398 69.2417C308.054 57.6706 256.313 62.0179 209.591 81.6606L302.605 302.903L484.277 146.074Z" fill="#4CBDCD" stroke="#CDA452" stroke-width="2"/>
<path d="M247.202 535.492C296.492 547.296 348.253 543.193 395.067 523.77C441.881 504.348 481.344 470.604 507.801 427.375L303.096 302.092L247.202 535.492Z" fill="#BA8938" stroke="#CDA452" stroke-width="2"/>

<path d="M64.2648 321.94C60.1671 271.423 72.1671 220.905 98.5452 177.627C124.923 134.349 164.325 100.533 211.103 81.0255L303.479 302.536L64.2648 321.94Z" fill="#FFD300" stroke="#CDA452" stroke-width="2"/>
  <path d="M584.234 302.387L533.234 267.387V337.387L584.234 302.387Z" 
        fill="#002E47" 
        stroke="#CDA452" 
        stroke-width="2"
        transform="translate(302.734, 301.886) rotate(45) translate(139.695, 0)" />
<path d="M246.438 535.208C197.193 523.223 153.296 496.477 120.5 457.835C87.7045 419.193 67.9839 371.161 64.1647 320.622L303.482 302.537L246.438 535.208Z" fill="#077F3E" stroke="#CDA452" stroke-width="2"/>

<circle cx="302.734" cy="301.886" r="139.695" fill="#F9F6ED" stroke="#CDA452" stroke-width="2"/>
<path d="M276.741 315.77H270.476V295.311L262.24 315.77H259.524L251.288 295.311V315.77H245.067V286.549H253.785L260.882 304.204L267.979 286.549H276.741V315.77ZM295.731 316.295C286.837 316.295 282.544 311.301 282.544 304.116V286.549H288.853V303.897C288.853 307.971 291.218 310.775 295.731 310.775C300.243 310.775 302.565 307.971 302.565 303.897V286.549H308.917V304.072C308.917 311.345 304.624 316.295 295.731 316.295ZM320.895 315.77H314.674V286.549H320.895V315.77ZM332.917 315.77H326.696V286.549H332.917V315.77ZM362.375 315.77H355.234L349.495 305.387H344.938V315.77H338.718V286.549H352.386C358.476 286.549 362.199 290.535 362.199 295.968C362.199 301.137 358.957 303.897 355.803 304.642L362.375 315.77ZM351.466 299.911C353.963 299.911 355.847 298.421 355.847 295.968C355.847 293.514 353.963 292.025 351.466 292.025H344.938V299.911H351.466Z" fill="#BA8938"/>
</svg>