<svg width="302" height="302" viewBox="0 0 605 605" fill="none" xmlns="http://www.w3.org/2000/svg">
<circle cx="302.734" cy="301.886" r="139.695" fill="#F9F6ED" stroke="#CDA452" stroke-width="2"/>
<path d="M276.741 315.77H270.476V295.311L262.24 315.77H259.524L251.288 295.311V315.77H245.067V286.549H253.785L260.882 304.204L267.979 286.549H276.741V315.77ZM295.731 316.295C286.837 316.295 282.544 311.301 282.544 304.116V286.549H288.853V303.897C288.853 307.971 291.218 310.775 295.731 310.775C300.243 310.775 302.565 307.971 302.565 303.897V286.549H308.917V304.072C308.917 311.345 304.624 316.295 295.731 316.295ZM320.895 315.77H314.674V286.549H320.895V315.77ZM332.917 315.77H326.696V286.549H332.917V315.77ZM362.375 315.77H355.234L349.495 305.387H344.938V315.77H338.718V286.549H352.386C358.476 286.549 362.199 290.535 362.199 295.968C362.199 301.137 358.957 303.897 355.803 304.642L362.375 315.77ZM351.466 299.911C353.963 299.911 355.847 298.421 355.847 295.968C355.847 293.514 353.963 292.025 351.466 292.025H344.938V299.911H351.466Z" fill="#BA8938"/>
</svg>