<svg width="605" height="605" viewBox="0 0 605 605" fill="none" xmlns="http://www.w3.org/2000/svg">
<path d="M594.234 301.887C594.234 263.606 586.694 225.701 572.045 190.334C557.396 154.968 535.924 122.833 508.856 95.7651C481.788 68.6968 449.653 47.2251 414.287 32.5758C378.92 17.9266 341.015 10.3867 302.734 10.3867L302.734 301.887H594.234Z" stroke="#CDA452" stroke-width="2"/>
<path d="M302.734 10.3868C264.454 10.3868 226.549 17.9266 191.182 32.5759C155.816 47.2251 123.681 68.6969 96.6127 95.7651C69.5444 122.833 48.0727 154.968 33.4235 190.335C18.7742 225.701 11.2344 263.606 11.2344 301.887L302.734 301.887L302.734 10.3868Z" stroke="#CDA452" stroke-width="2"/>
<path d="M11.2344 301.887C11.2344 340.167 18.7743 378.073 33.4235 413.439C48.0728 448.805 69.5445 480.94 96.6128 508.008C123.681 535.077 155.816 556.548 191.182 571.198C226.549 585.847 264.454 593.387 302.734 593.387L302.734 301.887L11.2344 301.887Z" stroke="#CDA452" stroke-width="2"/>
<path d="M302.734 593.387C341.015 593.387 378.92 585.847 414.287 571.198C449.653 556.548 481.788 535.077 508.856 508.008C535.924 480.94 557.396 448.805 572.045 413.439C586.694 378.072 594.234 340.167 594.234 301.887L302.734 301.887L302.734 593.387Z" stroke="#CDA452" stroke-width="2"/>
<path d="M419.6 557.275L409.647 560.992L404.222 546.466L414.175 542.749L415.013 544.992L407.608 547.757L409.015 551.525L416.267 548.817L417.105 551.06L409.853 553.768L411.357 557.797L418.762 555.032L419.6 557.275Z" fill="#BA8938"/>
<path d="M435.927 550.12L433.706 551.132L430.794 544.744C430.151 543.334 429.145 542.941 427.777 543.564C427.241 543.808 426.802 544.171 426.459 544.651C426.115 545.131 425.89 545.626 425.781 546.135L429.031 553.264L426.81 554.276L422.152 544.059L424.373 543.047L425.01 544.443C425.185 543.818 425.516 543.199 426.002 542.585C426.489 541.971 427.106 541.494 427.853 541.153C428.939 540.658 429.886 540.567 430.693 540.881C431.514 541.188 432.166 541.87 432.648 542.928L435.927 550.12Z" fill="#BA8938"/>
<path d="M448.207 544.115C446.71 544.93 445.212 545.127 443.713 544.707C442.221 544.266 441.056 543.276 440.219 541.738C439.434 540.295 439.241 538.821 439.64 537.316C440.045 535.79 440.969 534.635 442.413 533.85C443.869 533.057 445.314 532.924 446.747 533.45C448.194 533.969 449.343 535.011 450.194 536.577L450.472 537.088L442.854 541.231C443.358 541.963 444.03 542.435 444.87 542.649C445.709 542.863 446.578 542.725 447.477 542.237C447.981 541.963 448.433 541.593 448.833 541.129C449.246 540.657 449.531 540.158 449.686 539.632L451.433 540.508C450.957 542.002 449.882 543.204 448.207 544.115ZM447.567 536.709C447.17 536.043 446.588 535.575 445.823 535.303C445.071 535.024 444.253 535.125 443.368 535.606C442.524 536.065 442.008 536.69 441.82 537.48C441.625 538.256 441.689 539.007 442.012 539.731L447.567 536.709Z" fill="#BA8938"/>
<path d="M461.672 535.937L459.603 537.232L453.645 527.713L455.714 526.418L456.59 527.818C456.662 527.114 456.879 526.439 457.242 525.791C457.604 525.144 458.081 524.635 458.673 524.265L459.955 526.315C459.747 526.39 459.518 526.506 459.268 526.663C458.834 526.934 458.45 527.357 458.116 527.932C457.786 528.486 457.618 528.993 457.614 529.453L461.672 535.937Z" fill="#BA8938"/>
<path d="M477.431 530.907C475.879 532.015 474.281 532.471 472.636 532.275L472.536 530.175C473.776 530.47 475.02 530.172 476.268 529.28C477.025 528.739 477.518 528.082 477.746 527.309C477.997 526.54 477.816 525.727 477.203 524.869L476.419 523.772C476.358 525.339 475.741 526.542 474.568 527.38C473.37 528.236 472.096 528.518 470.744 528.226C469.406 527.926 468.214 527.044 467.169 525.581C466.132 524.131 465.689 522.724 465.839 521.36C465.992 519.974 466.667 518.854 467.865 517.998C469.063 517.142 470.396 516.942 471.865 517.397L470.959 516.13L472.945 514.711L479.135 523.374C479.694 524.156 480.037 524.93 480.165 525.696C480.315 526.465 480.26 527.161 480 527.785C479.75 528.421 479.405 528.991 478.965 529.496C478.548 530.004 478.036 530.474 477.431 530.907ZM473.898 525.202C474.352 524.878 474.714 524.438 474.984 523.883C475.254 523.328 475.381 522.799 475.365 522.297L472.932 518.892C472.462 518.713 471.921 518.662 471.308 518.738C470.696 518.813 470.162 519.014 469.708 519.338C468.926 519.896 468.496 520.614 468.417 521.489C468.329 522.352 468.6 523.225 469.23 524.108C469.861 524.991 470.603 525.536 471.458 525.745C472.303 525.942 473.116 525.76 473.898 525.202Z" fill="#BA8938"/>
<path d="M488.366 522.561L487.264 520.637C487.559 520.556 487.837 520.407 488.101 520.19C488.711 519.687 488.917 519.096 488.718 518.416L488.336 517.075L477.556 511.225L479.566 509.57L487.446 513.983L484.627 505.402L486.655 503.733L490.897 517.405C491.437 519.109 490.981 520.579 489.529 521.815C489.134 522.14 488.746 522.389 488.366 522.561Z" fill="#BA8938"/>
<path d="M512.711 494.771C511.193 496.363 509.623 497.179 508.001 497.218C506.39 497.245 504.873 496.58 503.448 495.222L496.65 488.741L498.543 486.755L505.274 493.172C506.182 494.038 507.135 494.476 508.133 494.485C509.142 494.483 510.084 494.022 510.961 493.102C511.838 492.182 512.249 491.224 512.192 490.228C512.135 489.232 511.653 488.301 510.744 487.434L504.014 481.018L505.907 479.032L512.687 485.497C514.123 486.866 514.861 488.361 514.899 489.983C514.949 491.593 514.219 493.189 512.711 494.771Z" fill="#BA8938"/>
<path d="M525.314 480.603C524.709 481.329 524.057 481.724 523.359 481.787C522.67 481.838 521.969 481.566 521.254 480.971L516.272 476.818L515.081 478.247L513.438 476.877L514.629 475.448L512.272 473.484L513.835 471.609L516.192 473.573L517.651 471.823L519.294 473.193L517.835 474.943L522.353 478.709C522.663 478.967 522.972 479.104 523.282 479.12C523.579 479.126 523.837 478.998 524.056 478.736C524.373 478.355 524.505 477.991 524.452 477.644L526.235 478.373C526.276 479.074 525.969 479.817 525.314 480.603Z" fill="#BA8938"/>
<path d="M521.593 464.575C521.349 464.896 521.016 465.09 520.594 465.159C520.181 465.215 519.808 465.116 519.475 464.863C519.142 464.609 518.947 464.276 518.891 463.864C518.845 463.439 518.943 463.066 519.187 462.745C519.441 462.412 519.774 462.218 520.187 462.161C520.599 462.105 520.972 462.204 521.305 462.458C521.638 462.711 521.833 463.044 521.889 463.457C521.945 463.869 521.846 464.242 521.593 464.575ZM532.366 471.225L530.888 473.167L521.952 466.368L523.43 464.425L532.366 471.225Z" fill="#BA8938"/>
<path d="M538.64 462.544L537.243 464.545L524.53 455.666L525.928 453.665L538.64 462.544Z" fill="#BA8938"/>
<path d="M533.275 447.866C533.058 448.206 532.741 448.427 532.326 448.529C531.92 448.619 531.54 448.551 531.187 448.325C530.835 448.1 530.614 447.784 530.525 447.377C530.443 446.957 530.511 446.578 530.729 446.238C530.954 445.886 531.27 445.665 531.677 445.575C532.084 445.486 532.463 445.554 532.816 445.779C533.168 446.005 533.389 446.321 533.479 446.728C533.568 447.134 533.5 447.514 533.275 447.866ZM544.554 453.617L543.239 455.673L533.779 449.624L535.094 447.567L544.554 453.617Z" fill="#BA8938"/>
<path d="M551.042 443.37C550.046 445.121 548.748 446.228 547.147 446.691L546.163 444.847C546.747 444.698 547.35 444.39 547.972 443.924C548.594 443.457 549.077 442.921 549.422 442.315C549.774 441.695 549.921 441.155 549.863 440.693C549.812 440.219 549.591 439.87 549.2 439.648C548.85 439.449 548.466 439.498 548.047 439.794C547.615 440.084 547.181 440.487 546.743 441.005C546.293 441.516 545.822 442.015 545.331 442.502C544.826 442.982 544.243 443.301 543.582 443.46C542.921 443.619 542.247 443.503 541.56 443.112C540.725 442.637 540.22 441.895 540.045 440.886C539.856 439.87 540.099 438.769 540.773 437.583C541.624 436.088 542.802 435.082 544.308 434.566L545.298 436.305C544.771 436.416 544.255 436.666 543.748 437.055C543.241 437.445 542.819 437.936 542.482 438.528C542.168 439.081 542.03 439.59 542.067 440.057C542.099 440.503 542.29 440.826 542.64 441.025C542.91 441.178 543.212 441.163 543.548 440.98C543.879 440.776 544.207 440.481 544.533 440.096C544.866 439.697 545.253 439.284 545.692 438.856C546.118 438.421 546.548 438.041 546.982 437.718C547.423 437.38 547.94 437.193 548.532 437.155C549.118 437.096 549.714 437.239 550.321 437.584C551.21 438.09 551.734 438.86 551.894 439.896C552.054 440.932 551.77 442.09 551.042 443.37Z" fill="#BA8938"/>
<path d="M560.936 423.694L559.869 425.89L558.782 425.362C559.295 426.576 559.213 427.88 558.535 429.274C558.088 430.194 557.399 430.867 556.468 431.294C555.524 431.713 554.528 431.669 553.483 431.161C552.409 430.64 551.763 429.895 551.544 428.927C551.332 427.945 551.453 426.987 551.907 426.053C552.605 424.617 553.565 423.74 554.788 423.421L553.283 422.69C552.697 422.405 552.132 422.398 551.588 422.667C551.043 422.937 550.598 423.427 550.253 424.138C549.704 425.267 549.645 426.47 550.075 427.748L548.112 427.905C547.58 426.234 547.724 424.555 548.543 422.868C549.146 421.627 549.93 420.759 550.895 420.263C551.86 419.767 552.976 419.827 554.245 420.443L560.936 423.694ZM557.446 427.685C557.982 426.584 558.022 425.613 557.569 424.772L556.043 424.031C555.102 424.194 554.364 424.826 553.829 425.927C553.524 426.555 553.441 427.152 553.579 427.719C553.717 428.285 554.058 428.701 554.602 428.965C555.145 429.229 555.683 429.24 556.214 428.999C556.731 428.75 557.142 428.312 557.446 427.685Z" fill="#BA8938"/>
<path d="M565.808 413.174C565.444 414.047 564.938 414.616 564.29 414.883C563.647 415.136 562.897 415.084 562.038 414.726L556.051 412.231L555.336 413.947L553.361 413.124L554.077 411.408L551.244 410.227L552.183 407.974L555.016 409.155L555.892 407.052L557.867 407.874L556.99 409.977L562.419 412.24C562.791 412.395 563.127 412.435 563.428 412.358C563.714 412.276 563.923 412.078 564.054 411.763C564.245 411.305 564.263 410.918 564.109 410.602L566.028 410.772C566.275 411.429 566.202 412.23 565.808 413.174Z" fill="#BA8938"/>
<path d="M557.513 398.961C557.375 399.339 557.114 399.623 556.731 399.814C556.353 399.989 555.968 400.005 555.575 399.861C555.182 399.718 554.898 399.457 554.722 399.079C554.552 398.687 554.536 398.302 554.674 397.923C554.818 397.53 555.079 397.246 555.456 397.07C555.834 396.895 556.219 396.879 556.612 397.023C557.005 397.166 557.29 397.427 557.465 397.805C557.641 398.182 557.657 398.568 557.513 398.961ZM569.77 402.129L568.932 404.422L558.386 400.567L559.224 398.274L569.77 402.129Z" fill="#BA8938"/>
<path d="M574.246 389.535C573.741 391.196 572.795 392.366 571.406 393.046C570.002 393.721 568.507 393.818 566.92 393.336C565.333 392.854 564.152 391.944 563.376 390.607C562.599 389.27 562.464 387.771 562.968 386.11C563.477 384.434 564.426 383.256 565.815 382.577C567.204 381.897 568.692 381.798 570.278 382.28C571.88 382.767 573.069 383.679 573.845 385.016C574.621 386.353 574.755 387.86 574.246 389.535ZM572.177 388.907C572.47 387.943 572.359 387.083 571.843 386.327C571.317 385.552 570.55 385.011 569.542 384.705C568.548 384.403 567.625 384.43 566.771 384.787C565.908 385.124 565.33 385.774 565.037 386.738C564.748 387.687 564.867 388.549 565.393 389.325C565.909 390.08 566.663 390.609 567.657 390.911C568.665 391.217 569.601 391.202 570.465 390.865C571.318 390.509 571.889 389.856 572.177 388.907Z" fill="#BA8938"/>
<path d="M579.843 366.756L579.299 369.136L572.455 367.573C570.944 367.228 570.021 367.788 569.686 369.254C569.555 369.828 569.576 370.397 569.749 370.961C569.923 371.526 570.179 372.005 570.518 372.401L578.155 374.145L577.612 376.525L566.665 374.025L567.209 371.645L568.704 371.987C568.314 371.468 568.023 370.829 567.83 370.07C567.638 369.311 567.634 368.531 567.816 367.73C568.082 366.567 568.584 365.759 569.323 365.308C570.066 364.842 571.004 364.738 572.137 364.997L579.843 366.756Z" fill="#BA8938"/>
<path d="M413.87 537.289L411.443 538.295L399.733 531.168L403.969 541.392L401.456 542.433L395.52 528.107L398.098 527.039L409.542 533.949L405.421 524.005L407.934 522.964L413.87 537.289Z" fill="#BA8938"/>
<path d="M426.553 531.458C425.007 532.249 423.508 532.381 422.054 531.855C420.594 531.314 419.485 530.305 418.73 528.829C417.974 527.353 417.807 525.871 418.23 524.384C418.652 522.897 419.636 521.757 421.181 520.966C422.74 520.168 424.247 520.033 425.7 520.56C427.154 521.086 428.259 522.088 429.015 523.564C429.777 525.054 429.947 526.543 429.525 528.03C429.102 529.517 428.112 530.66 426.553 531.458ZM425.567 529.534C426.464 529.075 427.005 528.397 427.191 527.501C427.383 526.584 427.239 525.657 426.759 524.719C426.286 523.795 425.625 523.149 424.775 522.783C423.933 522.396 423.063 522.432 422.167 522.891C421.284 523.343 420.746 524.027 420.554 524.944C420.368 525.84 420.512 526.75 420.985 527.675C421.466 528.613 422.127 529.275 422.969 529.662C423.818 530.029 424.684 529.986 425.567 529.534Z" fill="#BA8938"/>
<path d="M446.811 519.626L444.725 520.893L441.08 514.892C440.275 513.567 439.23 513.295 437.946 514.076C437.442 514.382 437.048 514.793 436.764 515.31C436.48 515.827 436.314 516.345 436.266 516.864L440.333 523.56L438.247 524.827L432.418 515.23L434.504 513.963L435.301 515.274C435.401 514.633 435.656 513.979 436.068 513.312C436.479 512.646 437.035 512.099 437.737 511.673C438.757 511.053 439.686 510.851 440.525 511.068C441.377 511.276 442.104 511.876 442.708 512.87L446.811 519.626Z" fill="#BA8938"/>
<path d="M458.23 512.238C456.837 513.221 455.38 513.576 453.859 513.302C452.329 513.016 451.068 512.171 450.076 510.765C449.093 509.373 448.727 507.914 448.979 506.389C449.222 504.852 450.04 503.592 451.432 502.608C452.964 501.527 454.52 501.245 456.099 501.762L455.646 503.902C454.631 503.538 453.673 503.673 452.774 504.308C451.938 504.898 451.468 505.656 451.364 506.584C451.251 507.498 451.512 508.405 452.146 509.304C452.781 510.203 453.553 510.759 454.461 510.971C455.37 511.183 456.242 510.994 457.078 510.404C457.951 509.788 458.399 508.931 458.422 507.834L460.59 508.124C460.549 509.785 459.762 511.156 458.23 512.238Z" fill="#BA8938"/>
<path d="M471.381 502.223C470.035 503.32 468.596 503.762 467.064 503.55C465.523 503.327 464.229 502.572 463.181 501.286C462.134 500 461.662 498.586 461.764 497.043C461.867 495.5 462.591 494.181 463.937 493.085C465.295 491.979 466.74 491.531 468.271 491.743C469.803 491.955 471.093 492.703 472.14 493.989C473.197 495.287 473.674 496.707 473.572 498.25C473.469 499.793 472.739 501.117 471.381 502.223ZM470.015 500.547C470.796 499.911 471.184 499.135 471.179 498.22C471.175 497.284 470.841 496.407 470.175 495.59C469.519 494.784 468.738 494.291 467.831 494.111C466.926 493.908 466.084 494.125 465.302 494.761C464.533 495.387 464.151 496.169 464.154 497.106C464.16 498.021 464.49 498.881 465.146 499.686C465.812 500.503 466.597 501.013 467.501 501.215C468.408 501.396 469.246 501.174 470.015 500.547Z" fill="#BA8938"/>
<path d="M488.723 486.424L486.948 488.099L482.13 482.991C481.067 481.864 479.988 481.816 478.895 482.848C478.466 483.252 478.167 483.736 477.997 484.301C477.827 484.867 477.773 485.408 477.834 485.925L483.21 491.624L481.435 493.299L473.73 485.131L475.505 483.456L476.558 484.572C476.522 483.924 476.636 483.231 476.899 482.493C477.161 481.755 477.591 481.105 478.189 480.541C479.057 479.722 479.924 479.331 480.789 479.367C481.665 479.393 482.502 479.828 483.3 480.674L488.723 486.424Z" fill="#BA8938"/>
<path d="M498.456 476.28L496.677 478.213L485.313 473.98L487.076 472.064L495.489 475.351L491.515 467.24L493.294 465.307L498.456 476.28Z" fill="#BA8938"/>
<path d="M509.799 463.426C508.736 464.759 507.433 465.524 505.889 465.72C504.343 465.895 502.885 465.436 501.515 464.344C500.231 463.32 499.479 462.037 499.261 460.496C499.041 458.933 499.443 457.509 500.467 456.224C501.501 454.927 502.78 454.243 504.305 454.17C505.839 454.085 507.303 454.598 508.697 455.709L509.151 456.072L503.746 462.852C504.494 463.33 505.297 463.504 506.154 463.374C507.01 463.245 507.757 462.78 508.395 461.98C508.753 461.532 509.025 461.016 509.213 460.432C509.411 459.836 509.479 459.266 509.417 458.721L511.367 458.849C511.51 460.41 510.987 461.936 509.799 463.426ZM506.328 456.853C505.703 456.394 504.985 456.189 504.174 456.236C503.373 456.271 502.658 456.683 502.03 457.47C501.431 458.222 501.199 458.998 501.333 459.799C501.456 460.59 501.807 461.256 502.386 461.798L506.328 456.853Z" fill="#BA8938"/>
<path d="M523.311 444.39L521.932 446.404L516.139 442.437C514.86 441.562 513.796 441.744 512.947 442.985C512.614 443.471 512.425 444.008 512.379 444.596C512.333 445.185 512.395 445.725 512.565 446.217L519.029 450.643L517.65 452.657L508.385 446.314L509.764 444.299L511.03 445.166C510.858 444.541 510.821 443.84 510.921 443.063C511.021 442.286 511.303 441.559 511.767 440.881C512.441 439.896 513.205 439.33 514.058 439.181C514.92 439.02 515.83 439.267 516.789 439.924L523.311 444.39Z" fill="#BA8938"/>
<path d="M529.785 434.469C529.3 435.28 528.717 435.771 528.037 435.942C527.364 436.1 526.629 435.94 525.831 435.463L520.265 432.132L519.31 433.728L517.475 432.63L518.43 431.034L515.796 429.459L517.05 427.364L519.683 428.94L520.853 426.984L522.688 428.083L521.518 430.038L526.566 433.058C526.912 433.264 527.239 433.352 527.547 433.32C527.842 433.279 528.077 433.113 528.252 432.82C528.507 432.395 528.581 432.014 528.474 431.68L530.348 432.124C530.498 432.809 530.31 433.591 529.785 434.469Z" fill="#BA8938"/>
<path d="M523.606 419.221C523.415 419.576 523.117 419.821 522.711 419.954C522.312 420.074 521.928 420.035 521.559 419.837C521.191 419.639 520.947 419.34 520.827 418.941C520.714 418.529 520.753 418.145 520.944 417.79C521.142 417.422 521.441 417.177 521.839 417.058C522.238 416.938 522.622 416.977 522.991 417.175C523.359 417.373 523.603 417.671 523.723 418.07C523.843 418.469 523.804 418.853 523.606 419.221ZM535.288 424.103L534.132 426.253L524.242 420.936L525.398 418.786L535.288 424.103Z" fill="#BA8938"/>
<path d="M541.501 412.27C540.768 413.843 539.666 414.869 538.196 415.347C536.711 415.818 535.217 415.703 533.714 415.003C532.21 414.303 531.168 413.236 530.588 411.803C530.007 410.37 530.083 408.867 530.816 407.293C531.556 405.706 532.661 404.673 534.131 404.195C535.602 403.718 537.089 403.829 538.592 404.529C540.11 405.236 541.158 406.306 541.739 407.739C542.32 409.172 542.24 410.682 541.501 412.27ZM539.541 411.357C539.966 410.444 539.977 409.577 539.573 408.756C539.161 407.914 538.478 407.271 537.522 406.826C536.581 406.388 535.663 406.285 534.768 406.518C533.865 406.73 533.202 407.293 532.776 408.206C532.357 409.105 532.354 409.976 532.765 410.817C533.17 411.638 533.842 412.267 534.784 412.706C535.739 413.151 536.668 413.267 537.57 413.055C538.465 412.822 539.122 412.256 539.541 411.357Z" fill="#BA8938"/>
<path d="M550.212 390.484L549.345 392.766L542.782 390.272C541.334 389.721 540.342 390.148 539.808 391.554C539.599 392.104 539.541 392.671 539.634 393.254C539.728 393.836 539.915 394.347 540.196 394.785L547.52 397.569L546.652 399.851L536.156 395.861L537.024 393.579L538.458 394.124C538.143 393.557 537.943 392.884 537.857 392.106C537.772 391.327 537.875 390.554 538.167 389.786C538.591 388.67 539.2 387.94 539.994 387.595C540.794 387.236 541.737 387.263 542.824 387.676L550.212 390.484Z" fill="#BA8938"/>
<path d="M555.622 373.55L554.918 375.888L553.761 375.539C554.46 376.656 554.587 377.957 554.14 379.441C553.845 380.42 553.272 381.195 552.421 381.764C551.555 382.329 550.565 382.443 549.452 382.108C548.309 381.764 547.553 381.132 547.183 380.211C546.817 379.276 546.784 378.311 547.083 377.316C547.543 375.788 548.352 374.769 549.509 374.259L547.906 373.777C547.283 373.589 546.724 373.671 546.229 374.024C545.734 374.377 545.373 374.932 545.145 375.689C544.783 376.891 544.916 378.088 545.545 379.281L543.631 379.749C542.84 378.183 542.715 376.503 543.256 374.707C543.653 373.386 544.289 372.404 545.163 371.761C546.036 371.117 547.148 370.999 548.499 371.406L555.622 373.55ZM552.812 378.046C553.165 376.873 553.051 375.908 552.47 375.151L550.845 374.661C549.942 374.972 549.314 375.714 548.961 376.886C548.76 377.554 548.772 378.157 548.999 378.694C549.226 379.232 549.628 379.588 550.207 379.762C550.786 379.936 551.318 379.862 551.804 379.539C552.275 379.211 552.611 378.713 552.812 378.046Z" fill="#BA8938"/>
<path d="M558.256 363.228L557.683 365.601L542.61 361.96L543.183 359.587L558.256 363.228Z" fill="#BA8938"/>
<path d="M584.234 302.387L533.234 267.387V337.387L584.234 302.387Z" fill="#002E47" stroke="#CDA452" stroke-width="2"/>
<path d="M194.12 536.124L188.43 546.825L198.464 538.433L199.523 538.997L198.156 551.997L203.846 541.295L206.325 542.613L198.81 556.748L195.314 554.889L196.537 543.335L187.621 550.799L184.125 548.94L191.64 534.805L194.12 536.124Z" fill="#BA8938"/>
<path d="M177.775 526.384L177.113 527.442C178.367 527.066 179.799 527.311 181.101 528.126C182.708 529.132 183.844 531.343 182.482 533.52C181.069 535.778 178.672 535.581 177.065 534.575C175.743 533.747 174.871 532.607 174.681 531.327L173.764 532.792C173.051 533.931 173.554 535.209 174.917 536.062C176.016 536.749 177.227 536.941 178.603 536.642L178.548 538.674C176.734 539.039 174.992 538.657 173.425 537.676C171.248 536.314 169.909 534.202 171.564 531.557L175.639 525.047L177.775 526.384ZM176.374 528.621L175.445 530.107C175.513 531.084 176.212 532.002 177.148 532.588C178.348 533.339 179.676 533.208 180.351 532.129C181.013 531.072 180.551 529.82 179.35 529.068C178.415 528.483 177.283 528.256 176.374 528.621Z" fill="#BA8938"/>
<path d="M162.375 515.932L158.172 521.837C157.128 523.303 157.524 524.321 158.677 525.142C159.733 525.894 161.078 525.908 162.006 525.597L166.696 519.007L168.749 520.468L162.028 529.913L159.975 528.451L160.893 527.161C159.739 527.459 157.97 527.378 156.484 526.321C154.45 524.873 154.212 523.055 155.59 521.119L160.321 514.47L162.375 515.932Z" fill="#BA8938"/>
<path d="M147.435 504.414L146.47 505.609C147.712 505.409 149.39 505.623 150.809 506.769C152.751 508.337 152.889 510.114 151.396 511.963L146.238 518.348L144.278 516.765L148.862 511.089C149.993 509.689 149.631 508.686 148.529 507.796C147.539 506.997 146.228 506.864 145.264 507.103L140.152 513.432L138.191 511.849L145.475 502.831L147.435 504.414Z" fill="#BA8938"/>
<path d="M138.565 496.841L132.302 503.83L133.732 505.111L132.258 506.755L130.829 505.474L130.396 505.957C128.666 507.887 126.577 507.916 124.987 506.491C124.397 505.962 123.973 505.357 123.79 504.806L125.434 503.798C125.536 504.115 125.756 504.409 126.024 504.649C126.757 505.306 127.654 505.24 128.519 504.275L128.952 503.792L127.2 502.223L128.674 500.578L130.425 502.148L136.688 495.159L138.565 496.841Z" fill="#BA8938"/>
<path d="M124.475 483.554L123.597 484.441C124.903 484.349 126.246 484.902 127.338 485.983C128.685 487.317 129.308 489.724 127.502 491.549C125.628 493.442 123.333 492.724 121.985 491.39C120.877 490.292 120.276 488.989 120.372 487.698L119.156 488.926C118.21 489.882 118.421 491.238 119.564 492.369C120.485 493.281 121.624 493.734 123.033 493.743L122.533 495.715C120.683 495.673 119.067 494.918 117.754 493.617C115.929 491.811 115.086 489.456 117.281 487.239L122.684 481.781L124.475 483.554ZM122.617 485.43L121.385 486.675C121.237 487.643 121.717 488.693 122.502 489.47C123.508 490.466 124.833 490.629 125.728 489.725C126.606 488.838 126.429 487.515 125.423 486.519C124.638 485.742 123.584 485.272 122.617 485.43Z" fill="#BA8938"/>
<path d="M113.146 480.213C110.545 482.562 106.982 482.447 104.618 479.829C103.106 478.154 102.902 476.496 103.175 475.15L105.425 475.35C105.182 476.442 105.438 477.407 106.194 478.244C107.61 479.812 109.718 479.783 111.393 478.272C113.067 476.76 113.328 474.649 111.913 473.081C111.157 472.244 110.205 471.907 109.112 472.021L109.143 469.762C110.509 469.628 112.138 470 113.65 471.675C116.014 474.294 115.764 477.849 113.146 480.213Z" fill="#BA8938"/>
<path d="M103.854 460.212C105.086 461.716 104.923 463.183 103.437 464.4L98.2574 468.643L99.474 470.128L97.7659 471.527L96.5493 470.042L94.0985 472.05L92.5016 470.1L94.9524 468.093L93.4621 466.273L95.1702 464.874L96.6606 466.693L101.358 462.846C101.971 462.344 102.173 461.682 101.717 461.125C101.413 460.754 100.975 460.522 100.686 460.511L101.773 458.845C102.396 458.924 103.109 459.302 103.854 460.212Z" fill="#BA8938"/>
<path d="M93.1307 446.734L91.8941 447.645C93.1459 447.766 94.715 448.399 95.797 449.867C97.2775 451.877 96.9602 453.631 95.0473 455.04L88.4393 459.909L86.9445 457.88L92.8183 453.552C94.2674 452.485 94.1709 451.423 93.3309 450.283C92.5764 449.259 91.3419 448.797 90.3484 448.784L83.7983 453.61L82.3035 451.581L91.6359 444.705L93.1307 446.734Z" fill="#BA8938"/>
<path d="M86.7997 437.665L77.1168 444.039L75.7314 441.934L77.1547 440.997C75.7575 440.882 74.2705 440.194 73.4392 438.931L75.5242 437.559C75.6028 437.766 75.7279 438 75.8995 438.26C76.48 439.142 77.86 439.929 78.8187 439.902L85.4142 435.56L86.7997 437.665Z" fill="#BA8938"/>
<path d="M67.0945 431.842C67.5278 432.562 67.303 433.538 66.5629 433.983C65.8227 434.429 64.855 434.171 64.4217 433.452C63.976 432.712 64.2131 431.756 64.9533 431.311C65.6934 430.865 66.6487 431.102 67.0945 431.842ZM79.3134 425.941L69.3831 431.921L68.083 429.762L78.0134 423.782L79.3134 425.941Z" fill="#BA8938"/>
<path d="M70.0696 409.668L63.688 413.104C62.1032 413.958 62.0073 415.045 62.6787 416.292C63.2932 417.433 64.4928 418.041 65.4632 418.173L72.5843 414.338L73.7791 416.557L63.5729 422.053L62.3781 419.834L63.7727 419.083C62.6056 418.839 61.0549 417.984 60.1901 416.378C59.0067 414.181 59.5983 412.445 61.6902 411.318L68.8748 407.449L70.0696 409.668Z" fill="#BA8938"/>
<path d="M67.8149 398.712L65.6658 398.41C66.2533 397.107 66.12 395.847 65.4754 394.453C64.7804 392.949 63.338 391.66 61.1814 392.657L59.9179 393.241C61.3362 393.564 62.5872 394.439 63.2218 395.812C64.4606 398.491 63.4384 401.37 59.9747 402.972C56.5763 404.543 53.6657 403.509 52.4168 400.808C51.8024 399.479 51.8584 397.999 52.5766 396.635L51.117 397.31L50.0595 395.023L60.0367 390.41C63.8272 388.657 66.1503 390.994 67.3489 393.586C68.1748 395.373 68.397 396.883 67.8149 398.712ZM58.2187 394.027L54.2975 395.84C53.7449 396.703 53.6369 398.128 54.1305 399.196C54.9664 401.004 56.8509 401.534 58.8768 400.597C60.9028 399.66 61.7196 397.881 60.8836 396.073C60.3901 395.006 59.2346 394.165 58.2187 394.027Z" fill="#BA8938"/>
<path d="M484.276 146.074C517.395 184.44 537.518 232.305 541.762 282.81C546.005 333.315 534.151 383.867 507.898 427.221L302.605 302.904L484.276 146.074Z" fill="#FF6633" stroke="#CDA452" stroke-width="2"/>
<path d="M484.277 146.074C451.157 107.708 406.743 80.8129 357.398 69.2417C308.054 57.6706 256.313 62.0179 209.591 81.6606L302.605 302.903L484.277 146.074Z" fill="#4CBDCD" stroke="#CDA452" stroke-width="2"/>
<path d="M247.202 535.492C296.492 547.296 348.253 543.193 395.067 523.77C441.881 504.348 481.344 470.604 507.801 427.375L303.096 302.092L247.202 535.492Z" fill="#BA8938" stroke="#CDA452" stroke-width="2"/>
<path d="M64.2648 321.94C60.1671 271.423 72.1671 220.905 98.5452 177.627C124.923 134.349 164.325 100.533 211.103 81.0255L303.479 302.536L64.2648 321.94Z" fill="#FFD300" stroke="#CDA452" stroke-width="2"/>
<path d="M246.438 535.208C197.193 523.223 153.296 496.477 120.5 457.835C87.7045 419.193 67.9839 371.161 64.1647 320.622L303.482 302.537L246.438 535.208Z" fill="#077F3E" stroke="#CDA452" stroke-width="2"/>
<path d="M81.3443 177.11L74.949 173.972L71.2067 181.598L77.602 184.737L76.3403 187.308L61.6815 180.115L62.9433 177.543L68.9431 180.487L72.6853 172.861L66.6856 169.917L67.9474 167.346L82.6061 174.539L81.3443 177.11Z" fill="#BA8938"/>
<path d="M81.3004 164.663C78.3673 162.89 77.2916 159.322 79.1025 156.326C80.9388 153.289 84.442 152.746 87.6265 154.671L88.1503 154.987L83.4266 162.802C85.0574 163.559 87.0109 163.166 88.1633 161.26C88.7585 160.275 89.0696 158.861 88.7879 157.718L90.8413 157.587C91.1972 159.175 90.8009 160.966 89.8258 162.579C87.9895 165.617 84.5058 166.601 81.3004 164.663ZM80.9042 157.416C79.7645 159.301 80.6909 161.034 81.8636 161.886L85.3082 156.187C84.0887 155.507 82.1073 155.425 80.9042 157.416Z" fill="#BA8938"/>
<path d="M100.977 145.292L99.9434 144.549C100.245 145.851 99.9021 147.293 98.9881 148.565C97.8599 150.136 95.5351 151.149 93.4076 149.621C91.2005 148.035 91.5569 145.609 92.6851 144.038C93.6134 142.746 94.8306 141.932 96.1457 141.822L94.7141 140.793C93.6006 139.994 92.2677 140.423 91.3108 141.755C90.5396 142.829 90.2661 144.049 90.4815 145.469L88.4159 145.282C88.1619 143.412 88.6645 141.663 89.7641 140.132C91.2922 138.004 93.5293 136.778 96.1142 138.634L102.477 143.204L100.977 145.292ZM98.7902 143.721L97.3387 142.679C96.3398 142.684 95.3591 143.336 94.7022 144.251C93.8596 145.424 93.9073 146.785 94.9611 147.542C95.9951 148.284 97.2995 147.895 98.1421 146.722C98.799 145.807 99.1036 144.67 98.7902 143.721Z" fill="#BA8938"/>
<path d="M108.074 136.065L95.4324 125.73L97.0594 123.74L109.701 134.075L108.074 136.065Z" fill="#BA8938"/>
<path d="M117.705 125.315C116.374 126.785 114.869 126.843 113.417 125.529L108.352 120.947L107.038 122.4L105.368 120.889L106.682 119.436L104.285 117.269L106.01 115.362L108.406 117.53L110.015 115.751L111.686 117.262L110.076 119.041L114.669 123.196C115.268 123.738 115.967 123.842 116.46 123.297C116.788 122.934 116.955 122.458 116.923 122.165L118.768 123.008C118.782 123.649 118.509 124.425 117.705 125.315Z" fill="#BA8938"/>
<path d="M129.609 112.77L124.435 107.42C123.159 106.101 122.081 106.36 121.043 107.364C120.11 108.266 119.846 109.612 119.967 110.618L125.703 116.548L123.855 118.335L112.503 106.599L114.351 104.812L118.606 109.211C118.522 107.997 118.95 106.221 120.287 104.928C122.117 103.158 123.951 103.223 125.636 104.965L131.457 110.982L129.609 112.77Z" fill="#BA8938"/>
<path d="M133.275 101.391C130.996 98.6385 131.267 95.0128 134.038 92.7175C135.811 91.2497 137.51 91.1138 138.869 91.4502L138.568 93.7343C137.465 93.4394 136.471 93.6589 135.585 94.3928C133.926 95.7669 133.863 97.9169 135.33 99.6893C136.798 101.462 138.938 101.819 140.597 100.445C141.483 99.7112 141.869 98.7563 141.8 97.6371L144.1 97.7664C144.177 99.1646 143.727 100.809 141.955 102.277C139.183 104.572 135.571 104.163 133.275 101.391Z" fill="#BA8938"/>
<path d="M157.439 90.1762L156.705 89.1361C156.564 90.4644 155.768 91.7149 154.488 92.6183C152.908 93.7335 150.38 93.9298 148.869 91.7898C147.303 89.5697 148.433 87.3933 150.013 86.2781C151.313 85.3605 152.73 84.99 154.009 85.316L152.992 83.8759C152.202 82.7559 150.802 82.7252 149.462 83.671C148.382 84.4333 147.724 85.4968 147.463 86.9097L145.572 86.0566C145.944 84.2061 146.991 82.7179 148.531 81.631C150.671 80.1205 153.187 79.6936 155.022 82.2937L159.539 88.694L157.439 90.1762ZM155.886 87.9761L154.856 86.516C153.91 86.1948 152.77 86.49 151.85 87.1394C150.67 87.9722 150.27 89.2734 151.018 90.3334C151.752 91.3735 153.112 91.4324 154.292 90.5995C155.212 89.9502 155.872 88.9749 155.886 87.9761Z" fill="#BA8938"/>
<path d="M167.144 83.7752L161.006 73.6693L163.202 72.3348L164.105 73.8204C164.273 72.4004 165.029 70.91 166.348 70.1094L167.669 72.2854C167.456 72.3579 167.213 72.4768 166.941 72.642C166.02 73.2012 165.167 74.5787 165.16 75.557L169.341 82.4408L167.144 83.7752Z" fill="#BA8938"/>
<path d="M175.71 71.829C174.136 68.7844 175.084 65.1804 178.194 63.5728C181.347 61.9428 184.617 63.3112 186.326 66.6167L186.607 67.1604L178.495 71.3535C179.49 72.8511 181.361 73.5376 183.339 72.5146C184.362 71.9863 185.366 70.9436 185.723 69.822L187.543 70.7829C187.016 72.3228 185.742 73.6429 184.067 74.5085C180.914 76.1386 177.43 75.1562 175.71 71.829ZM179.16 65.443C177.203 66.4548 177.087 68.4162 177.642 69.7555L183.557 66.6978C182.873 65.4807 181.226 64.3751 179.16 65.443Z" fill="#BA8938"/>
<circle cx="302.734" cy="301.886" r="139.695" fill="#F9F6ED" stroke="#CDA452" stroke-width="2"/>
<path d="M276.741 315.77H270.476V295.311L262.24 315.77H259.524L251.288 295.311V315.77H245.067V286.549H253.785L260.882 304.204L267.979 286.549H276.741V315.77ZM295.731 316.295C286.837 316.295 282.544 311.301 282.544 304.116V286.549H288.853V303.897C288.853 307.971 291.218 310.775 295.731 310.775C300.243 310.775 302.565 307.971 302.565 303.897V286.549H308.917V304.072C308.917 311.345 304.624 316.295 295.731 316.295ZM320.895 315.77H314.674V286.549H320.895V315.77ZM332.917 315.77H326.696V286.549H332.917V315.77ZM362.375 315.77H355.234L349.495 305.387H344.938V315.77H338.718V286.549H352.386C358.476 286.549 362.199 290.535 362.199 295.968C362.199 301.137 358.957 303.897 355.803 304.642L362.375 315.77ZM351.466 299.911C353.963 299.911 355.847 298.421 355.847 295.968C355.847 293.514 353.963 292.025 351.466 292.025H344.938V299.911H351.466Z" fill="#BA8938"/>
<path d="M401.763 65.3215L399.373 64.3741L402.901 55.4761L401.081 54.7542L401.911 52.6606L403.731 53.3824L403.975 52.768C404.923 50.3785 406.87 49.518 408.964 50.3482C409.942 50.7362 410.822 51.3745 411.225 52.3507L409.705 53.4599C409.504 53.0378 409.166 52.6933 408.62 52.4767C407.687 52.1068 406.852 52.4866 406.365 53.7155L406.121 54.3299L408.351 55.2142L407.521 57.3078L405.291 56.4235L401.763 65.3215Z" fill="#BA8938"/>
<path d="M411.738 69.9526C408.324 68.4108 407.363 64.8878 408.764 61.7866C410.155 58.7078 413.433 57.0994 416.847 58.6412C420.305 60.2032 421.243 63.7161 419.852 66.7949C418.452 69.8961 415.196 71.5145 411.738 69.9526ZM412.675 67.8777C414.683 68.7847 416.554 67.6152 417.421 65.6965C418.277 63.8002 417.917 61.623 415.909 60.7161C413.924 59.8192 412.053 60.9887 411.196 62.885C410.329 64.8037 410.689 66.9809 412.675 67.8777Z" fill="#BA8938"/>
<path d="M424.293 76.15C420.974 74.4157 420.216 70.8436 421.791 67.8275C423.356 64.8331 426.72 63.4146 430.04 65.1488C433.404 66.9057 434.14 70.4665 432.575 73.4609C431 76.477 427.657 77.9069 424.293 76.15ZM425.348 74.132C427.3 75.1521 429.236 74.0915 430.21 72.2254C431.174 70.3811 430.939 68.1869 428.986 67.1668C427.055 66.158 425.12 67.2186 424.156 69.063C423.182 70.9291 423.416 73.1232 425.348 74.132Z" fill="#BA8938"/>
<path d="M441.395 85.6544L439.188 84.336L440.017 82.949C438.637 83.4932 437.083 83.4206 435.78 82.6421C433.174 81.0852 432.442 77.9672 434.438 74.6257C436.397 71.3473 439.519 70.4177 442.146 71.9872C443.407 72.7405 444.232 74.0321 444.411 75.5935L447.563 70.3186L449.77 71.6369L441.395 85.6544ZM437.578 81.0643C438.629 81.6921 440.053 81.744 441.009 81.2888L443.42 77.2538C443.367 76.1959 442.66 74.9461 441.609 74.3183C439.864 73.2762 437.909 74.0188 436.729 75.9943C435.561 77.9487 435.834 80.0222 437.578 81.0643Z" fill="#BA8938"/>
<path d="M461.872 100.129L459.166 98.1477C459.053 97.6398 458.942 96.9213 458.84 96.1488C457.245 96.2552 455.615 95.9116 454.134 94.8268C451.783 93.1057 450.798 90.4729 452.635 87.9645C454.11 85.9498 456.24 85.901 458.319 86.2101C458.49 84.8175 458.837 83.5552 459.503 82.6466C460.804 80.869 463.309 80.6395 465.363 82.1436C467.16 83.4598 467.899 85.5176 466.64 87.236C465.18 89.2309 462.884 88.8851 460.666 88.4747C460.672 89.4197 460.727 90.3396 460.784 91.0489C460.828 91.9004 460.886 92.7321 460.974 93.5243C462.28 93.0246 463.487 92.3302 464.288 91.7334L465.422 93.7475C464.182 94.4473 462.721 95.1985 461.199 95.6615C461.367 97.0893 461.589 98.5263 461.872 100.129ZM455.605 93.3557C456.455 93.9776 457.5 94.1664 458.557 94.0906C458.425 92.9023 458.305 91.7824 458.268 91.0875C458.213 90.1676 458.177 89.1398 458.194 88.1211C456.906 88.0575 455.773 88.3203 454.977 89.4066C453.922 90.8485 454.401 92.4735 455.605 93.3557ZM461.567 84.2192C461.134 84.8117 460.87 85.7108 460.758 86.6914C462.437 87.01 463.907 87.1155 464.731 85.9897C465.324 85.1799 465.084 84.3062 464.333 83.7566C463.445 83.1057 462.262 83.2711 461.567 84.2192Z" fill="#BA8938"/>
<path d="M476.78 113.045L474.854 111.341L475.698 110.388C474.373 110.556 472.973 110.069 471.799 109.031C470.351 107.75 469.578 105.334 471.314 103.372C473.114 101.337 475.492 101.937 476.941 103.219C478.133 104.273 478.819 105.566 478.796 106.886L479.964 105.566C480.872 104.539 480.58 103.169 479.351 102.083C478.361 101.207 477.175 100.811 475.74 100.882L476.136 98.8455C478.022 98.782 479.711 99.4591 481.123 100.708C483.085 102.444 484.079 104.793 481.97 107.177L476.78 113.045ZM473.719 108.376C474.562 109.122 475.663 109.54 476.638 109.324L477.823 107.986C477.918 106.992 477.368 105.95 476.525 105.204C475.443 104.247 474.085 104.157 473.225 105.128C472.382 106.082 472.637 107.419 473.719 108.376Z" fill="#BA8938"/>
<path d="M479.388 122.325C477.961 120.914 477.21 119.55 477.113 117.594L479.274 117.116C479.178 118.57 479.755 119.727 480.869 120.829C482.07 122.017 483.908 122.734 485.613 121.011L486.612 120.002C485.141 120.2 483.633 119.81 482.537 118.725C480.396 116.608 480.345 113.492 483.083 110.725C485.769 108.01 488.919 107.959 491.077 110.094C492.139 111.144 492.614 112.579 492.414 114.138L493.568 112.972L495.395 114.78L487.509 122.75C484.513 125.778 481.459 124.374 479.388 122.325ZM484.678 117.641C485.53 118.485 486.935 118.875 487.955 118.645L491.054 115.512C491.274 114.49 490.868 113.09 490.015 112.246C488.571 110.817 486.581 110.983 484.98 112.602C483.378 114.22 483.233 116.212 484.678 117.641Z" fill="#BA8938"/>
<path d="M490.958 127.484L489.219 125.59L497.93 117.594L499.668 119.488L498.388 120.663C499.813 120.551 501.423 121.001 502.466 122.137L500.59 123.859C500.477 123.664 500.313 123.449 500.098 123.214C499.369 122.421 497.852 121.853 496.891 122.038L490.958 127.484Z" fill="#BA8938"/>
<path d="M506.518 125.083C505.961 124.432 506.023 123.413 506.693 122.84C507.363 122.267 508.38 122.364 508.937 123.015C509.509 123.684 509.431 124.685 508.762 125.258C508.092 125.831 507.091 125.753 506.518 125.083ZM497.278 134.694L495.608 132.74L504.593 125.055L506.264 127.008L497.278 134.694Z" fill="#BA8938"/>
<path d="M503.576 142.966C501.349 140.139 501.846 136.538 504.673 134.31C507.48 132.098 511.098 132.458 513.326 135.284C514.75 137.092 514.844 138.794 514.475 140.145L512.199 139.788C512.52 138.693 512.325 137.693 511.613 136.79C510.28 135.097 508.132 134.982 506.324 136.406C504.517 137.831 504.107 139.961 505.44 141.653C506.153 142.557 507.098 142.965 508.218 142.924L508.033 145.22C506.633 145.263 505.001 144.773 503.576 142.966Z" fill="#BA8938"/>
<path d="M513.931 156.754L512.447 154.655L513.727 153.751C512.452 153.602 510.865 152.926 509.791 151.406C508.321 149.327 508.68 147.545 510.659 146.146L517.495 141.313L518.979 143.412L512.902 147.708C511.403 148.768 511.48 149.852 512.314 151.032C513.063 152.091 514.313 152.587 515.326 152.62L522.102 147.829L523.586 149.928L513.931 156.754Z" fill="#BA8938"/>
<path d="M516.845 161.409L515.452 159.248L529.177 150.402L530.57 152.563L516.845 161.409Z" fill="#BA8938"/>
<path d="M521.074 168.909C520.056 167.207 520.441 165.751 522.122 164.746L527.984 161.242L526.98 159.561L528.913 158.406L529.918 160.087L532.691 158.429L534.01 160.635L531.236 162.293L532.467 164.352L530.534 165.508L529.303 163.448L523.987 166.626C523.294 167.041 522.99 167.678 523.367 168.309C523.618 168.729 524.025 169.028 524.315 169.083L522.969 170.6C522.352 170.427 521.689 169.939 521.074 168.909Z" fill="#BA8938"/>
<path d="M528.966 182.653L527.749 180.389L529.129 179.647C527.882 179.344 526.389 178.479 525.508 176.841C524.302 174.598 524.876 172.873 527.01 171.725L534.384 167.76L535.602 170.024L529.047 173.548C527.43 174.418 527.374 175.504 528.058 176.776C528.673 177.919 529.853 178.563 530.854 178.719L538.163 174.79L539.381 177.054L528.966 182.653Z" fill="#BA8938"/>
<path d="M531.274 187.604L530.164 185.286L540.828 180.179L541.938 182.498L540.371 183.248C541.767 183.557 543.175 184.457 543.841 185.848L541.545 186.948C541.494 186.728 541.4 186.474 541.262 186.187C540.797 185.216 539.511 184.23 538.538 184.126L531.274 187.604Z" fill="#BA8938"/>
<path d="M536.031 199.043C534.649 195.773 535.898 192.375 539.348 190.917C542.505 189.583 546.025 190.807 547.387 194.031C548.769 197.301 547.152 200.456 543.725 201.904L543.161 202.143L539.607 193.731C538.037 194.607 537.208 196.419 538.075 198.471C538.523 199.531 539.485 200.613 540.576 201.056L539.477 202.796C537.982 202.151 536.765 200.779 536.031 199.043ZM543.858 199.137C545.124 198.549 546.353 196.993 545.448 194.851C544.591 192.821 542.644 192.554 541.266 193.004L543.858 199.137Z" fill="#BA8938"/>
</svg>
